<svg version="1" xmlns="http://www.w3.org/2000/svg" width="1041.333" height="1041.333" viewBox="0 0 781.000000 781.000000"><path d="M37 210.5V224h681v357.5l12.2-.2c6.8 0 12.9-.2 13.6-.2.9-.1 1.2-39.2 1.2-192.1V197H37v13.5zM39.9 255.7c-.1 1-.1 244.4 0 246 .1 1 3.1 1.3 11.6 1.3 6.3 0 11.5-.3 11.6-.8.1-.4.2-56.2.3-124l.1-123.2H51.8c-6.5 0-11.8.3-11.9.7zM185.8 343.4c-.1.2-3.3.6-7 1-30.6 2.9-55.4 20.8-66.2 48-2.8 6.9-3.3 8.6-4.2 14.1-.3 1.6-.9 4.6-1.3 6.5-.8 3.6-.6 23.9.2 27.5 4.8 20.6 11.6 33.5 23.9 45.2 15.1 14.2 33.8 21.3 56.5 21.3 52.4.2 88.1-41.8 80.9-95-1.8-13.6-9-30.3-17.3-40.1-13.6-15.9-33.4-25.8-54.8-27.4-4.4-.4-8.5-.8-9.2-1-.6-.2-1.3-.2-1.5-.1zm12.8 22.7c27.8 4.7 46.8 28.6 46.6 58.4-.1 12.9-1.5 19.7-6 29.4-9.2 19.8-27.5 30.9-51 30.9-26.8 0-46-13.3-54.1-37.5-7.8-23.3-1.7-52.1 14-66.9 7-6.5 19.3-12.9 28.4-14.6 5.1-.9 15.8-.8 22.1.3z"/><path d="M363.1 346.1c-8.5 1.9-24 8.8-29.6 13.1-4.3 3.3-13.6 12.7-16.7 16.8-2.2 2.9-9 15.3-9.4 17 0 .3-.3 1.2-.7 2-4.8 12.3-6.4 34.5-3.3 48.5 2.4 11.2 5.6 18.9 11.5 27.9 8.3 12.7 17.2 20.7 31 27.6 19 9.5 47.2 10.6 68.3 2.6 32.7-12.3 51.4-41.8 50.4-79.1-1.1-37.7-22.2-65.2-57.9-75.6-10.4-3.1-32-3.5-43.6-.8zm37.5 21.4c12.8 4.3 24 12.5 30.2 22.3 3.8 5.8 7.9 16.4 8.9 22.9.9 6 .9 19.4 0 25.2-1.3 8.4-6.3 20-11.2 26.1-8.1 10.1-17 15.9-29.1 19-27.7 7.1-55-4.1-66.5-27.5-5.3-10.8-6.8-18.4-6.4-32.5.5-18.2 5.5-31.1 16.2-41.7 8.7-8.6 15.3-11.8 31.8-15.7 4-1 21.2.3 26.1 1.9zM562.5 344.7c-28.7 4.5-51.8 23.7-60.9 50.5-3.7 11.1-4.7 17.1-4.8 29.3-.3 42.9 25.5 75.1 65.5 81.5 7.1 1.2 22.7.9 29.2-.4 13.3-2.9 25.7-9.6 36.2-19.7l5.2-5v34.3c0 18.9 0 41.2.1 49.5V580h24l-.2-116.2-.3-116.2-11.8-.1H633v11.2c0 6.2-.1 11.3-.2 11.3-.2 0-3.3-2.8-6.9-6.3-7.6-7.1-16.7-12.4-27.7-16.3-6.5-2.3-9.7-2.7-20.2-3-6.9-.1-13.8 0-15.5.3zm31.9 22.4c18.4 6.2 31.6 19.9 37.1 38.7 2.2 7.6 2.7 11.2 2.6 20.2-.2 27.5-15.3 49.3-39.4 57.1-14.4 4.6-33.8 2.6-46.7-4.9-6.3-3.6-15-12.8-18.7-19.8-9-16.8-10.3-40.5-3.3-59.3 6.5-17.3 23.4-31.4 40.7-33.7 2.6-.3 4.9-.7 5.1-.9 1-.9 17.6.9 22.6 2.6z"/></svg>